<?xml version="1.0"?>
<svg xmlns:rdf="http://www.w3.org/1999/02/22-rdf-syntax-ns#" xmlns="http://www.w3.org/2000/svg" xmlns:cc="http://creativecommons.org/ns#" xmlns:xlink="http://www.w3.org/1999/xlink" xmlns:dc="http://purl.org/dc/elements/1.1/" xmlns:svg="http://www.w3.org/2000/svg" id="svg2" viewBox="0 0 900 830" version="1.1">
  <title id="title5661">Background</title>
  <defs id="defs4">
    <clipPath id="clipPath7188" clipPathUnits="userSpaceOnUse">
      <rect id="rect7190" height="778.75" width="2305.4" y="-1415.2" x="4407.2" fill="url(#linearGradient7192)"/>
    </clipPath>
    <linearGradient id="linearGradient7192" y2="-207.53" gradientUnits="userSpaceOnUse" x2="1474.1" gradientTransform="matrix(1.0305 0 0 2.1129 5149.2 -590.1)" y1="-204.89" x1="-675.03">
      <stop id="stop5191" stop-color="#1a1a1a" offset="0"/>
      <stop id="stop6317" stop-color="#aad400" offset=".096583"/>
      <stop id="stop5205" stop-color="#504" offset=".22918"/>
      <stop id="stop5203" stop-color="#f42400" offset=".36566"/>
      <stop id="stop5201" stop-color="#006680" offset=".49735"/>
      <stop id="stop5199" stop-color="#ff9400" offset=".63413"/>
      <stop id="stop5197" stop-color="#784421" offset=".76714"/>
      <stop id="stop6315" stop-color="#d40055" offset=".90101"/>
      <stop id="stop5193" stop-color="#1a1a1a" offset="1"/>
    </linearGradient>
  </defs>
  <g id="layer1" transform="translate(0 -222.36)">
    <g id="g3840" transform="translate(-5550,2175)">
      <g id="g3821">
        <rect id="rect7984" y="-1522.6" width="800" height="350" x="5600"/>
        <g id="g7979" fill="#0ff" transform="matrix(.33287 0 0 .36787 4066 -1103.1)">
          <g id="g7975" fill="#0ff">
            <g id="g7972" fill="#0ff">
              <path id="path6434" d="m4745.2-1588.6c-14.932 0-26.928 13.177-26.928 29.557v363.63c0 16.38 11.997 29.557 26.928 29.557h25.862v28.501h-137.88v-293.05h-6.724v293.05h-18.394v-293.05h-6.7241v40.476h-63.005v78.551c-8.1908 1.7649-14.386 9.8823-14.386 19.619 0 9.7369 6.195 17.818 14.386 19.583v15.725c-8.1908 1.765-14.386 9.8459-14.386 19.583s6.1947 17.854 14.386 19.62v15.725c-8.1905 1.7653-14.386 9.8462-14.386 19.583 0 11.028 7.9535 19.984 17.748 19.984 9.7941 0 17.715-8.9555 17.715-19.984 0-9.726-6.1764-17.806-14.353-19.583v-15.725c8.1771-1.7772 14.353-9.8933 14.353-19.62 0-9.7263-6.1761-17.806-14.353-19.583v-15.725c8.1768-1.7774 14.353-9.857 14.353-19.583 0-9.7262-6.1761-17.842-14.353-19.619v-70.98h56.281v252.58h169.72v311.11h-134.61v-103.34c12.365-0.67459 23.884-5.0365 33.685-12.121l9.1162 14.414c-3.8422 5.6305-4.1493 13.657-0.2586 19.692 4.7366 7.3467 13.874 8.9369 20.398 3.6036 6.5247-5.3333 8.0017-15.585 3.2651-22.932-4.2209-6.5467-11.951-8.5458-18.2-5.1324l-8.8576-14.014c15.104-13.424 25.065-33.85 26.056-56.929h15.485c1.5234 7.2532 7.2882 12.667 14.192 12.667 8.0627 0 14.58-7.3742 14.58-16.453 0-9.0785-6.5168-16.453-14.58-16.453-6.9034 0-12.668 5.4139-14.192 12.667h-15.485c-0.9905-23.08-10.952-43.499-26.056-56.929l8.8576-13.978c6.2465 3.4031 13.982 1.3732 18.2-5.1688 4.7366-7.3467 3.2596-17.598-3.2651-22.932-6.5247-5.3333-15.662-3.7432-20.398 3.6036-3.8907 6.0347-3.5836 14.062 0.2586 19.692l-9.0839 14.378c-10.686-7.7357-23.396-12.194-37.047-12.194-13.641 0-26.358 4.4684-37.047 12.194l-9.1162-14.378c3.8423-5.6305 4.1494-13.658 0.2586-19.692-2.9604-4.5917-7.6305-6.9609-12.317-6.7704-2.8117 0.1143-5.635 1.1668-8.0818 3.1668-6.5247 5.3333-8.0016 15.585-3.265 22.932 4.2177 6.542 11.954 8.5719 18.2 5.1688l8.8576 14.014c-15.1 13.431-25.097 33.826-26.088 56.893h-15.452c-1.5234-7.2532-7.3205-12.667-14.224-12.667-8.0627 0-14.58 7.3742-14.58 16.453 0 9.0785 6.5168 16.453 14.58 16.453 6.9034 0 12.7-5.4139 14.224-12.667h15.452c0.9915 23.074 10.98 43.505 26.088 56.929l-8.8576 14.014c-6.2488-3.4134-13.979-1.4143-18.2 5.1324-4.7366 7.3467-3.2597 17.599 3.265 22.932 6.5247 5.3333 15.662 3.7431 20.398-3.6036 3.8908-6.0348 3.5837-14.062-0.2586-19.692l9.1162-14.414c9.7978 7.0784 21.296 11.441 33.652 12.121v103.34h-90.225c-11.972 0-22.034 9.1563-25.215 21.767h-44.126v170.06h6.724v-162.49h36.4c-0.01 0.32738-0.032 0.65278-0.032 0.98279v65.774c0 16.813 11.703 30.321 26.25 30.321h322.95c14.547 0 26.25-13.508 26.25-30.321v-29.12h36.012v124.85h6.7241v-124.85h82.693v52.306h106.71v72.548h6.7241v-72.548h235.28v72.548h6.724v-80.191h-242v-138.97h89.449c0.5994 13.922 4.4733 26.894 10.765 37.929l-12.802 10.265c-5.0005-4.3264-12.129-4.6721-17.489-0.2912-6.5247 5.3333-7.937 15.622-3.2004 22.968 4.7366 7.3467 13.841 9.0097 20.366 3.6764 5.8142-4.7526 7.5896-13.457 4.5581-20.493l12.446-9.9735c11.922 17.007 30.062 28.223 50.56 29.338v17.435c-6.4416 1.7153-11.25 8.2064-11.25 15.979 0 9.0785 6.5491 16.416 14.612 16.416 8.0627 0 14.612-7.3378 14.612-16.416 0-7.7731-4.8082-14.264-11.25-15.979v-17.435c20.498-1.1153 38.632-12.332 50.56-29.338l12.414 9.9735c-3.0223 7.0334-1.2196 15.744 4.5905 20.493 6.5247 5.3333 15.629 3.6703 20.366-3.6764 4.7366-7.3467 3.3244-17.635-3.2003-22.968-5.3596-4.3809-12.488-4.0352-17.489 0.2912l-12.769-10.228c6.8702-12.033 10.83-26.344 10.83-41.714 0-15.359-3.9685-29.679-10.83-41.714l12.769-10.265c5.0005 4.3264 12.129 4.6721 17.489 0.2912 6.5247-5.3333 7.9369-15.622 3.2003-22.968-4.7366-7.3467-13.841-9.0097-20.366-3.6764-5.8101 4.7491-7.6128 13.46-4.5905 20.493l-12.446 9.9735c-11.928-17.002-30.042-28.259-50.527-29.375v-17.399c6.4416-1.7153 11.25-8.2427 11.25-16.016 0-9.0784-6.5491-16.416-14.612-16.416-8.0627 0-14.612 7.3378-14.612 16.416 0 7.7732 4.8082 14.301 11.25 16.016v17.399c-20.492 1.1164-38.637 12.363-50.56 29.375l-12.446-9.9735c3.0316-7.0361 1.2561-15.74-4.5581-20.493-6.5247-5.3333-15.63-3.6703-20.366 3.6764-4.7366 7.3467-3.3243 17.635 3.2004 22.968 5.3596 4.3809 12.488 4.0352 17.489-0.2912l12.802 10.265c-6.2862 11.032-10.16 24.016-10.765 37.929h-89.449v-168.86c39.116-2.1386 70.247-38.528 70.247-83.101 0-44.658-31.252-81.055-70.473-83.064v-41.132h190.21v91.545c-8.1908 1.765-14.386 9.8824-14.386 19.62 0 9.7369 6.1951 17.818 14.386 19.583v15.725c-8.1908 1.7649-14.386 9.8459-14.386 19.583 0 9.7372 6.1948 17.854 14.386 19.62v15.725c-8.1905 1.7652-14.386 9.8462-14.386 19.583 0 11.028 7.9536 19.983 17.748 19.983 9.794 0 17.715-8.9555 17.715-19.983 0-9.7261-6.1764-17.806-14.353-19.583v-15.725c8.1772-1.7772 14.353-9.8932 14.353-19.62 0-9.7262-6.176-17.806-14.353-19.583v-15.725c8.1768-1.7774 14.353-9.8571 14.353-19.583 0-9.7263-6.176-17.842-14.353-19.62v-91.545h42.381v91.545c-8.1908 1.765-14.386 9.8824-14.386 19.62 0 9.7369 6.195 17.818 14.386 19.583v15.725c-8.1908 1.7649-14.386 9.8459-14.386 19.583 0 9.7372 6.1947 17.854 14.386 19.62v15.725c-8.1905 1.7652-14.386 9.8462-14.386 19.583 0 11.028 7.9535 19.983 17.748 19.983 9.7941 0 17.715-8.9555 17.715-19.983 0-9.7261-6.1764-17.806-14.353-19.583v-15.725c8.1771-1.7772 14.353-9.8932 14.353-19.62 0-9.7262-6.1761-17.806-14.353-19.583v-15.725c8.1768-1.7774 14.353-9.8571 14.353-19.583 0-9.7263-6.1761-17.842-14.353-19.62v-91.545h98.889v157.72c-39.372 1.8265-70.796 38.32-70.796 83.101 0 45.948 33.092 83.21 73.9 83.21 39.674 0 72.034-35.243 73.803-79.424h29.224v146.65h-135.45v211.59h6.724v-142.47h128.73v53.471h204.3v89h6.724v-89h110.33v31.304c0 16.38 11.997 29.557 26.928 29.557h58.415c14.932 0 26.928-13.177 26.928-29.557v-23.915h67.725c1.5674 9.2227 8.7766 16.198 17.424 16.198s15.824-6.9755 17.392-16.198h13.965c1.5675 9.2227 8.7443 16.198 17.392 16.198s15.857-6.9752 17.424-16.198h13.965c1.5679 9.2224 8.7446 16.198 17.392 16.198 9.7941 0 17.748-8.9556 17.748-19.983 0-11.028-7.9536-19.947-17.748-19.947-8.6378 0-15.813 6.9545-17.392 16.161h-13.965c-1.5783-9.2073-8.7863-16.161-17.424-16.161-8.638 0-15.814 6.9542-17.392 16.161h-13.965c-1.5785-9.207-8.7541-16.161-17.392-16.161-8.638 0-15.846 6.9542-17.424 16.161h-67.725v-332.15c0-16.38-11.997-29.557-26.928-29.557h-25.862v-62.316h72.154c1.7704 44.179 34.163 79.388 73.835 79.388 40.807 0 73.868-37.262 73.868-83.21s-33.06-83.174-73.868-83.174c-39.694 0-72.097 35.214-73.835 79.424h-72.154v-269.25h-6.724v269.25h-17.392v-269.25h-6.724v56.347h-230.36v-77.823h211.16v-7.5711h-33.103v-1.6016h-217.88v86.995h-185.95v123.25h-98.889v-225.35h-6.7241v225.35h-42.381v-225.35h-6.724v106.54h-82.66v-82.81h-6.7241v82.81h-216.14c-1.5784-9.2074-8.7863-16.162-17.424-16.162-8.6379 0-15.814 6.9545-17.392 16.162h-13.965c-1.5783-9.2074-8.754-16.162-17.392-16.162s-15.846 6.9541-17.424 16.162h-13.965c-1.5785-9.207-8.7542-16.162-17.392-16.162-9.794 0-17.748 8.9192-17.748 19.947s7.9536 19.983 17.748 19.983c8.6475 0 15.824-6.9755 17.392-16.198h13.965c1.5675 9.2227 8.7766 16.198 17.424 16.198 8.6477 0 15.824-6.9752 17.392-16.198h13.965c1.5677 9.2224 8.7445 16.198 17.392 16.198 8.6476 0 15.857-6.9752 17.424-16.198h216.14v53.617h-216.14c-1.5784-9.2074-8.7863-16.162-17.424-16.162-8.6379 0-15.814 6.9545-17.392 16.162h-13.965c-1.5783-9.2074-8.754-16.162-17.392-16.162s-15.846 6.9541-17.424 16.162h-13.965c-1.5785-9.207-8.7542-16.162-17.392-16.162-9.794 0-17.748 8.9191-17.748 19.947s7.9536 19.984 17.748 19.984c8.6475 0 15.824-6.9755 17.392-16.198h13.965c1.5675 9.2227 8.7766 16.198 17.424 16.198 8.6477 0 15.824-6.9752 17.392-16.198h13.965c1.5677 9.2224 8.7445 16.198 17.392 16.198 8.6476 0 15.857-6.9752 17.424-16.198h216.14v50.05h-107.55v48.703c-38.158 1.8933-68.8 36.321-70.505 79.279h-65.204c-1.7542-44.194-34.12-79.388-73.803-79.388-40.807 0-73.9 37.225-73.9 83.173s33.093 83.21 73.9 83.21c39.674 0 72.034-35.243 73.803-79.424h29.224v302.45h-89.417v40.003h-36.012v-29.083c0-16.813-11.702-30.321-26.25-30.321h-84.665v-75.675h64.719c1.5675 9.2227 8.7766 16.198 17.424 16.198s15.824-6.9755 17.392-16.198h13.965c1.5675 9.2227 8.7443 16.198 17.392 16.198s15.857-6.9752 17.424-16.198h13.965c1.5677 9.2224 8.7445 16.198 17.392 16.198 9.7941 0 17.748-8.9556 17.748-19.983 0-11.028-7.9535-19.947-17.748-19.947-8.6378 0-15.813 6.9545-17.392 16.161h-13.965c-1.5784-9.2073-8.7863-16.161-17.424-16.161-8.638 0-15.814 6.9542-17.392 16.161h-13.965c-1.5786-9.207-8.7542-16.161-17.392-16.161-8.638 0-15.846 6.9542-17.424 16.161h-64.719v-60.678h64.719c1.5675 9.2227 8.7766 16.198 17.424 16.198s15.824-6.9755 17.392-16.198h13.965c1.5675 9.2227 8.7443 16.198 17.392 16.198s15.857-6.9752 17.424-16.198h13.965c1.5677 9.2224 8.7445 16.198 17.392 16.198 9.7941 0 17.748-8.9556 17.748-19.983 0-11.028-7.9535-19.947-17.748-19.947-8.6378 0-15.813 6.9545-17.392 16.162h-13.965c-1.5784-9.2073-8.7863-16.162-17.424-16.162-8.638 0-15.814 6.9542-17.392 16.162h-13.965c-1.5786-9.207-8.7542-16.162-17.392-16.162-8.638 0-15.846 6.9542-17.424 16.162h-64.719v-195.69h25.829c14.932 0 26.928-13.177 26.928-29.557v-363.63c0-16.38-11.997-29.557-26.928-29.557h-58.415zm3.9439 8.6996h50.527c12.922 0 23.308 12.65 23.308 28.355v348.64c0 15.706-10.386 28.355-23.308 28.355h-21.886v-42.333h18.524c11.198 0 20.204-11.131 20.204-24.97v-307.25c0-13.839-9.006-24.934-20.204-24.934h-43.803c-11.198 0-20.204 11.094-20.204 24.934v307.25c0 13.839 9.0059 24.97 20.204 24.97h18.556v42.333h-21.918c-12.922 0-23.34-12.65-23.34-28.355v-348.64c0-15.706 10.418-28.355 23.34-28.355zm7.0473 13.905h36.4c7.9934 0 14.645 7.8641 16.358 18.455h-69.115c1.7124-10.591 8.3642-18.455 16.358-18.455zm-16.778 26.026h69.956v13.978h-69.956v-13.978zm0 21.549h69.956v14.014h-69.956v-14.014zm0 21.585h69.956v14.014h-69.956v-14.014zm0 21.585h69.956v226.44c0 13.214-7.4745 23.842-16.778 23.842h-14.806v-1.1648h-0.032v-72.436c8.1927-1.7631 14.386-9.8444 14.386-19.583 0-9.7388-6.1928-17.856-14.386-19.619v-15.688c8.1927-1.763 14.386-9.8808 14.386-19.62 0-9.7385-6.1931-17.82-14.386-19.583v-15.725c8.1927-1.7632 14.386-9.8443 14.386-19.583 0-11.028-7.9534-19.984-17.748-19.984-9.794 0-17.715 8.9554-17.715 19.984 0 9.7262 6.1762 17.806 14.353 19.583v15.725c-8.1768 1.7774-14.353 9.857-14.353 19.583 0 9.7262 6.1762 17.843 14.353 19.62v15.688c-8.177 1.7771-14.353 9.8932-14.353 19.619 0 9.726 6.1762 17.806 14.353 19.583v73.6h-14.838c-9.3034 0-16.778-10.627-16.778-23.842v-226.44h-0.0002zm1824.8 21.803c-14.932 0-26.928 13.177-26.928 29.557v40.95h-218.27v58.967c-39.102 2.1547-70.214 38.503-70.214 83.064s31.112 80.944 70.214 83.101v67.23h-96.367v-331.31h-6.724v70.506h-66.917c-1.5783-9.2073-8.7863-16.161-17.424-16.161-8.6379 0-15.814 6.9545-17.392 16.161h-13.965c-1.5784-9.2073-8.754-16.161-17.392-16.161s-15.846 6.9541-17.424 16.161h-13.965c-1.5785-9.2069-8.7542-16.161-17.392-16.161-9.794 0-17.748 8.9191-17.748 19.947s7.9536 19.984 17.748 19.984c8.6474 0 15.824-6.9755 17.392-16.198h13.965c1.5675 9.2227 8.7766 16.198 17.424 16.198 8.6476 0 15.824-6.9752 17.392-16.198h13.965c1.5677 9.2224 8.7444 16.198 17.392 16.198s15.857-6.9752 17.424-16.198h66.917v53.617h-66.917c-1.5783-9.2073-8.7863-16.162-17.424-16.162-8.6379 0-15.814 6.9546-17.392 16.162h-13.965c-1.5784-9.2073-8.754-16.162-17.392-16.162s-15.846 6.9542-17.424 16.162h-13.965c-1.5785-9.2069-8.7542-16.162-17.392-16.162-9.794 0-17.748 8.9192-17.748 19.947s7.9536 19.984 17.748 19.984c8.6474 0 15.824-6.9756 17.392-16.198h13.965c1.5675 9.2227 8.7766 16.198 17.424 16.198 8.6476 0 15.824-6.9752 17.392-16.198h13.965c1.5677 9.2223 8.7444 16.198 17.392 16.198s15.857-6.9752 17.424-16.198h66.917v302.37c-12.356 0.68045-23.855 5.0427-33.653 12.121l-9.1162-14.414c3.8423-5.6305 4.1494-13.657 0.2586-19.692-4.7366-7.3467-13.874-8.9369-20.398-3.6036-6.5247 5.3334-8.0016 15.585-3.265 22.932 4.2208 6.5467 11.951 8.5458 18.2 5.1324l8.8576 14.014c-15.108 13.425-25.096 33.855-26.088 56.929h-15.452c-1.5234-7.2532-7.3205-12.667-14.224-12.667-8.0627 0-14.58 7.3742-14.58 16.453 0 9.0785 6.5168 16.453 14.58 16.453 6.9035 0 12.701-5.414 14.224-12.667h15.452c0.9911 23.067 10.988 43.462 26.088 56.893l-8.8576 14.014c-6.2464-3.4031-13.982-1.3732-18.2 5.1688-4.7366 7.3467-3.2597 17.599 3.265 22.932 6.5248 5.3333 15.662 3.7431 20.398-3.6036 3.8908-6.0348 3.5837-14.062-0.2586-19.692l9.1162-14.378c10.688 7.7255 23.406 12.194 37.047 12.194 13.651 0 26.36-4.4582 37.047-12.194l9.0839 14.378c-3.8422 5.6305-4.1493 13.657-0.2586 19.692 4.7366 7.3467 13.877 8.9369 20.398 3.6036 6.5254-5.3333 8.0017-15.585 3.265-22.932-4.2177-6.542-11.954-8.5719-18.2-5.1688l-8.8577-13.978c15.106-13.43 25.063-33.849 26.056-56.929h15.485c1.5234 7.2532 7.2885 12.667 14.192 12.667 8.0631 0 14.58-7.3742 14.58-16.453 0-9.0785-6.5165-16.453-14.58-16.453-6.903 0-12.668 5.4139-14.192 12.667h-15.485c-0.9934-23.079-10.95-43.505-26.056-56.929l8.8577-14.014c6.2471 3.4134 13.979 1.4143 18.2-5.1324 4.7367-7.3467 3.2604-17.598-3.265-22.932-6.5222-5.3333-15.662-3.7431-20.398 3.6036-3.8907 6.0348-3.5836 14.062 0.2586 19.692l-9.1162 14.414c-9.8004-7.0846-21.32-11.447-33.685-12.121v-102.76h103.35v-7.5712h-0.2586v-67.194c39.389-1.8064 70.861-38.342 70.861-83.137s-31.472-81.296-70.861-83.101v-51.36h109.59v22.532c-8.1762 1.7771-14.353 9.8932-14.353 19.619 0 9.7262 6.1774 17.806 14.353 19.583v15.725c-8.1762 1.7772-14.353 9.8568-14.353 19.583s6.1771 17.842 14.353 19.619v15.725c-8.1759 1.7774-14.353 9.8571-14.353 19.583 0 11.028 7.9222 19.984 17.715 19.984 9.7946 0 17.748-8.9556 17.748-19.984 0-9.7369-6.1951-17.818-14.386-19.583v-15.725c8.1914-1.765 14.386-9.8822 14.386-19.619 0-9.7371-6.1942-17.818-14.386-19.583v-15.725c8.1905-1.7652 14.386-9.8461 14.386-19.583 0-9.7371-6.1942-17.854-14.386-19.619v-22.532h42.058v22.532c-8.1771 1.7771-14.353 9.8932-14.353 19.619 0 9.7262 6.1763 17.806 14.353 19.583v15.725c-8.1771 1.7772-14.353 9.8568-14.353 19.583s6.1761 17.842 14.353 19.619v15.725c-8.1769 1.7774-14.353 9.8571-14.353 19.583 0 11.028 7.9211 19.984 17.715 19.984s17.748-8.9556 17.748-19.984c0-9.7369-6.1951-17.818-14.386-19.583v-15.725c8.1907-1.765 14.386-9.8822 14.386-19.619 0-9.7371-6.1949-17.818-14.386-19.583v-15.725c8.1905-1.7652 14.386-9.8461 14.386-19.583 0-9.7371-6.1949-17.854-14.386-19.619v-22.532h46.454v246.39h-124.98v93.438c-12.356 0.6805-23.79 5.0427-33.588 12.121l-9.1163-14.414c3.8423-5.6304 4.1494-13.657 0.2586-19.692-4.7366-7.3467-13.873-8.9369-20.398-3.6036-6.5221 5.3333-8.0016 15.585-3.265 22.932 4.2208 6.5467 11.951 8.5457 18.2 5.1323l8.8575 14.014c-15.106 13.424-25.096 33.855-26.088 56.929h-15.452c-1.5234-7.2532-7.3205-12.667-14.224-12.667-8.0627 0-14.58 7.3742-14.58 16.453 0 9.0785 6.5168 16.453 14.58 16.453 6.9035 0 12.701-5.414 14.224-12.667h15.452c0.9911 23.067 10.989 43.462 26.088 56.893l-8.8575 14.014c-6.2481-3.4031-13.982-1.3732-18.2 5.1688-4.7366 7.3467-3.2567 17.599 3.265 22.932 6.5254 5.3333 15.662 3.7431 20.398-3.6036 3.8908-6.0348 3.5837-14.062-0.2586-19.692l9.1163-14.378c9.7889 7.0754 21.277 11.404 33.62 12.085v216.47h-15.872c-2.0774-43.855-34.336-78.696-73.803-78.696-40.807 0-73.9 37.225-73.9 83.173s33.093 83.21 73.9 83.21c39.889 0 72.391-35.598 73.835-80.116h22.564v-57.912h90.774v88.163h6.724v-95.734h-97.498v-41.168h170.88v0.0364h6.7241l0.064-194.23h38.728v331.1h6.724v-338.67h-45.452l0.032-65.192h25.862c14.931 0 26.928-13.177 26.928-29.557v-363.63c0-16.38-11.998-29.557-26.928-29.557h-58.415 0.0008l0.0002-0.0001zm3.944 8.6996h50.527c12.923 0 23.34 12.65 23.34 28.355v348.64c0 15.706-10.417 28.356-23.34 28.356h-21.918v-42.333h18.556c11.199 0 20.204-11.131 20.204-24.97v-307.25c0-13.839-9.0052-24.934-20.204-24.934h-43.803c-11.198 0-20.204 11.094-20.204 24.934v307.25c0 13.839 9.006 24.97 20.204 24.97h18.524v42.333h-21.886c-12.922 0-23.308-12.65-23.308-28.356v-348.64c0-15.706 10.386-28.355 23.308-28.355zm-903.19 4.8047h26.379v79.425h-26.379v-79.424zm910.27 9.1h36.4c9.3022 0 16.778 10.628 16.778 23.842v293.35c0 13.214-7.4758 23.842-16.778 23.842h-14.838v-73.6c8.177-1.777 14.353-9.8568 14.353-19.583s-6.1762-17.842-14.353-19.619v-15.688c8.177-1.777 14.353-9.8933 14.353-19.62 0-9.7261-6.1764-17.806-14.353-19.583v-15.725c8.177-1.7772 14.353-9.8568 14.353-19.583 0-11.028-7.9212-19.984-17.715-19.984-9.7941 0-17.748 8.9554-17.748 19.984 0 9.7387 6.1928 17.82 14.386 19.583v15.725c-8.1924 1.7634-14.386 9.8446-14.386 19.583 0 9.7387 6.1928 17.856 14.386 19.62v15.688c-8.1927 1.7631-14.386 9.8807-14.386 19.619 0 9.7386 6.1928 17.82 14.386 19.583v73.6h-14.838c-9.3019 0-16.778-10.628-16.778-23.842v-293.35c0-13.214 7.4758-23.842 16.778-23.842zm-1096.2 77.896h179.22v56.238h-121.26c-14.547 0-26.25 13.508-26.25 30.321v29.12h-31.713v-115.68zm185.95 0h26.379v56.238h-26.379v-56.238zm33.103 0h230.36v212.9h24.116v19.656h-473.53v-109.31h31.713v29.083c0 16.813 11.702 30.321 26.25 30.321h322.95c14.547 0 26.25-13.508 26.25-30.321v-65.774c0-16.813-11.702-30.321-26.25-30.321h-161.86v-56.238zm-463.15 4.4407h82.66v53.617h-82.66v-53.617zm1090.8 32.177c35.626 1.803 64.04 34.86 64.04 75.42s-28.414 73.654-64.04 75.457v-5.46c32.949-1.7862 59.158-32.452 59.158-69.997s-26.209-68.14-59.158-69.924v-5.4964zm-6.724 0.036v5.4599c-32.652 2.1418-58.512 32.62-58.512 69.924 0 37.299 25.866 67.811 58.512 69.96v5.4599c-35.338-2.1506-63.394-35.094-63.394-75.42s28.055-73.233 63.394-75.384zm6.724 12.449c29.511 1.7792 52.952 29.261 52.952 62.935s-23.441 61.192-52.952 62.972v-34.907c12.433-1.6965 22.079-13.606 22.079-28.064 0-14.459-9.6461-26.368-22.079-28.064v-34.871zm-6.724 0.073v34.871c-12.138 1.9966-21.433 13.77-21.433 27.992 0 14.221 9.2947 25.995 21.433 27.991v34.907c-29.221-2.1228-52.305-29.46-52.305-62.899s23.084-60.739 52.305-62.862zm-775.37 15.543h309.63c13.948 0 25.183 11.731 25.183 26.281v56.893c0 14.55-11.234 26.244-25.183 26.244h-309.63c-13.948 0-25.183-11.695-25.183-26.244v-24.643h37.596v20.857c0 12.609 9.8855 22.75 22.176 22.75h272.87c12.291 0 22.144-10.141 22.144-22.75v-49.322c0-12.609-9.8531-22.75-22.144-22.75h-272.87c-12.291 0-22.176 10.14-22.176 22.75v20.893h-37.596v-24.679c0-14.55 11.234-26.281 25.183-26.281zm-308.72 0.91h82.66v50.05h-82.66v-50.05zm349.49 14.414h201.11v78.769h-201.11c-11.736 0-21.174-8.4161-21.174-18.891v-16.671h1.0345v-0.036h64.331c1.5658 9.225 8.7429 16.198 17.392 16.198s15.858-6.9729 17.424-16.198h13.933c1.5657 9.225 8.7753 16.198 17.424 16.198 8.6489 0 15.826-6.9733 17.392-16.198h13.965c1.566 9.225 8.7429 16.198 17.392 16.198 9.7941 0 17.748-8.9554 17.748-19.983s-7.9535-19.947-17.748-19.947c-8.638 0-15.814 6.9543-17.392 16.162h-13.965c-1.5785-9.207-8.7541-16.162-17.392-16.162-8.638 0-15.846 6.9543-17.424 16.162h-13.933c-1.5783-9.2072-8.7863-16.162-17.424-16.162-8.6379 0-15.814 6.9543-17.392 16.162h-65.365v-16.708c0-10.475 9.4384-18.892 21.174-18.892v-0.0004zm207.83 0h12.446v78.769h-12.446v-78.769zm19.17 0h12.446v78.769h-12.446v-78.769zm19.17 0h12.414v78.769h-12.414v-78.769zm19.138 0.4732c9.4057 1.928 16.39 9.4179 16.39 18.418v40.986c0 9.0003-6.9842 16.49-16.39 18.418v-77.823zm255.55 53.071c37.048 0 67.046 33.777 67.046 75.493s-29.998 75.566-67.046 75.566c-35.912 0-65.249-31.799-67.014-71.744h4.8491c1.7633 36.916 28.94 66.248 62.165 66.248 34.364 0 62.197-31.376 62.197-70.07 0-38.089-26.992-69.074-60.613-70.033-0.5336-0.015-1.0471 0-1.584 0-33.246 0-60.433 29.336-62.165 66.284h-4.8491c1.7333-39.976 31.08-71.744 67.014-71.744zm0 12.449c30.928 0 55.958 28.22 55.958 63.044s-25.031 63.081-55.958 63.081c-29.786 0-54.167-26.217-55.926-59.259h31.002c1.6492 13.825 12.162 24.497 24.892 24.497 13.875 0 25.118-12.66 25.118-28.283s-11.243-28.319-25.118-28.319c-12.741 0-23.257 10.691-24.892 24.533h-31.002c1.7267-33.074 26.118-59.295 55.926-59.295zm-1194.1 25.917c35.923 0 65.265 31.749 67.014 71.708h-4.8814c-1.7474-36.931-28.897-66.248-62.133-66.248-0.537 0-1.0827-0.015-1.6164 0-33.621 0.9586-60.581 31.944-60.581 70.033 0 38.693 27.833 70.07 62.197 70.07 33.236 0 60.385-29.351 62.133-66.284h4.8814c-1.7494 39.962-31.091 71.744-67.014 71.744-37.049 0-67.079-33.813-67.079-75.53 0-41.716 30.03-75.493 67.079-75.493zm209.45 0.1092h0.065v5.4236c-31.719 1.8606-57.146 30.471-58.835 66.175h-4.8814c1.6947-38.71 29.27-69.698 63.652-71.598h-0.0003zm6.7887 0c35.459 2.0026 63.652 34.959 63.652 75.384 0 40.338-28.073 73.288-63.426 75.42v-5.4964c32.661-2.1315 58.544-32.612 58.544-69.924 0-37.402-25.998-67.926-58.771-69.924v-5.46zm-216.24 12.34c29.796 0 54.151 26.202 55.894 59.259h-31.002c-1.6492-13.825-12.162-24.497-24.892-24.497-13.875 0-25.118 12.66-25.118 28.283s11.243 28.319 25.118 28.319c12.741 0 23.256-10.691 24.892-24.533h31.002c-1.7426 33.059-26.097 59.295-55.894 59.295-30.928 0-55.99-28.257-55.99-63.081s25.063-63.044 55.99-63.044zm209.51 0.1091v34.907c-11.213 1.6544-20.09 11.629-21.594 24.242h-31.002c1.6779-31.83 24.318-57.302 52.596-59.15zm6.724 0c29.328 1.9967 52.564 29.41 52.564 62.935 0 33.439-23.117 60.81-52.338 62.935v-34.907c12.137-2.0019 21.465-13.806 21.465-28.028 0-14.309-9.4444-26.141-21.692-28.028v-34.907zm1291.7 47.028h118.19v61.152c0 16.38 11.997 29.557 26.928 29.557h25.83l-0.097 231.1h-170.88v-81.499c12.4-0.65591 23.928-5.0113 33.75-12.121l9.0839 14.378c-3.8427 5.6305-4.15 13.657-0.2586 19.692 4.7366 7.3467 13.874 8.9369 20.398 3.6036 6.5247-5.3333 8.0017-15.585 3.2651-22.932-4.2185-6.542-11.954-8.5719-18.2-5.1688l-8.8576-13.978c15.104-13.43 25.065-33.849 26.056-56.929h15.485c1.5226 7.2532 7.2881 12.667 14.192 12.667 8.0627 0 14.58-7.3742 14.58-16.453 0-9.0785-6.5168-16.453-14.58-16.453-6.9034 0-12.669 5.4139-14.192 12.667h-15.485c-0.9905-23.079-10.952-43.505-26.056-56.929l8.8576-14.014c6.2488 3.4135 13.977 1.4144 18.2-5.1323 4.7366-7.3467 3.2596-17.598-3.2651-22.932-6.5247-5.3333-15.662-3.7431-20.398 3.6036-3.8914 6.0348-3.5841 14.062 0.2586 19.692l-9.1163 14.414c-9.8002-7.0846-21.322-11.447-33.685-12.121v-85.867h0.0002-0.0003zm-940.07 8.5904h473.53v35.089h-25.829c-14.932 0-26.928 13.177-26.928 29.557v295.97h-314.64v-48.011h149.8c1.5675 9.2227 8.7766 16.198 17.424 16.198 8.6475 0 15.824-6.9755 17.392-16.198h13.965c1.5675 9.2227 8.7444 16.198 17.392 16.198 8.6477 0 15.857-6.9752 17.424-16.198h13.965c1.5677 9.2224 8.7446 16.198 17.392 16.198 9.794 0 17.748-8.9556 17.748-19.983 0-11.028-7.9535-19.947-17.748-19.947-8.6378 0-15.814 6.9545-17.392 16.161h-13.965c-1.5784-9.2073-8.7863-16.161-17.424-16.161-8.638 0-15.814 6.9542-17.392 16.161h-13.965c-1.5785-9.207-8.7542-16.161-17.392-16.161-8.638 0-15.846 6.9542-17.424 16.161h-149.8v-51.251h149.8c1.5675 9.2227 8.7766 16.198 17.424 16.198 8.6475 0 15.824-6.9755 17.392-16.198h13.965c1.5675 9.2227 8.7444 16.198 17.392 16.198 8.6477 0 15.857-6.9752 17.424-16.198h13.965c1.5677 9.2224 8.7446 16.198 17.392 16.198 9.794 0 17.748-8.9556 17.748-19.983 0-11.028-7.9535-19.947-17.748-19.947-8.6378 0-15.814 6.9545-17.392 16.161h-13.965c-1.5784-9.2073-8.7863-16.161-17.424-16.161-8.638 0-15.814 6.9542-17.392 16.161h-13.965c-1.5785-9.207-8.7542-16.161-17.392-16.161-8.638 0-15.846 6.9542-17.424 16.161h-149.8v-118.48h29.256c1.7686 44.181 34.129 79.424 73.803 79.424 40.807 0 73.9-37.262 73.9-83.21s-33.092-83.173-73.9-83.173c-39.683 0-72.048 35.194-73.803 79.388h-65.204c-1.7004-42.837-32.174-77.208-70.182-79.279v-40.877zm-458.14 11.102h29.256c1.7226 43.031 32.478 77.544 70.732 79.315v168.86h-51.917v146.51h-48.07v-394.68zm36.045 0h4.8814c1.6933 35.79 27.236 64.472 59.062 66.211v5.4235c-34.516-1.7441-62.244-32.814-63.943-71.635zm11.12 0h31.002c1.5019 12.713 10.494 22.759 21.821 24.315v34.871c-28.384-1.7288-51.14-27.27-52.822-59.186zm-434.9 32.287c12.277 0 23.717 4.0177 33.362 10.92l-14.353 22.713c-5.5814-3.6909-12.1-5.7875-19.041-5.7875-6.9307 0-13.4 2.1064-18.976 5.7875l-14.353-22.713c9.6513-6.9022 21.085-10.92 33.362-10.92zm1297.5 0.4004h21.885v42.333h-18.523c-11.198 0-20.204 11.131-20.204 24.97v307.25c0 13.839 9.006 24.934 20.204 24.934h43.803c11.198 0 20.204-11.094 20.204-24.934v-307.25c0-13.838-9.0059-24.97-20.204-24.97h-18.556v-42.333h21.918c12.922 0 23.34 12.65 23.34 28.355v348.64c0 15.706-10.418 28.355-23.34 28.355h-50.527c-12.922 0-23.308-12.65-23.308-28.355v-348.64c0-15.706 10.386-28.355 23.308-28.355zm-455.26 4.6591c35.923 0 65.265 31.749 67.014 71.708h-4.8814c-1.7473-36.931-28.897-66.248-62.133-66.248-0.537 0-1.0827-0.015-1.6164 0-33.621 0.9586-60.581 31.944-60.581 70.033 0 38.693 27.833 70.07 62.197 70.07 33.236 0 60.385-29.351 62.133-66.284h4.8814c-1.7493 39.961-31.091 71.744-67.014 71.744-37.049 0-67.079-33.813-67.079-75.53 0-41.716 30.03-75.493 67.079-75.493zm212.81 0c37.049 0 67.079 33.777 67.079 75.493s-30.03 75.53-67.079 75.53c-35.923 0-65.265-31.782-67.014-71.744h4.8814c1.7473 36.933 28.897 66.284 62.133 66.284 34.364 0 62.197-31.376 62.197-70.07 0-38.089-26.96-69.075-60.581-70.033-0.5337-0.015-1.0794 0-1.6164 0-33.236 0-60.385 29.316-62.133 66.248h-4.8814c1.7493-39.959 31.091-71.708 67.014-71.708zm-1093.9 10.265 14.386 22.713c-7.2561 6.9987-12.103 17.052-12.996 28.392h-24.795c0.9785-20.675 9.9083-38.977 23.405-51.105zm77.682 0c13.486 12.129 22.428 30.43 23.405 51.105h-24.795c-0.8925-11.34-5.7395-21.393-12.996-28.392l14.386-22.713zm803.43 2.1839c29.796 0 54.151 26.202 55.894 59.259h-31.002c-1.6491-13.825-12.162-24.497-24.892-24.497-13.875 0-25.118 12.66-25.118 28.283s11.243 28.319 25.118 28.319c12.741 0 23.256-10.691 24.892-24.533h31.002c-1.7426 33.06-26.097 59.295-55.894 59.295-30.928 0-55.991-28.257-55.991-63.081s25.063-63.044 55.991-63.044zm212.81 0c30.928 0 55.991 28.22 55.991 63.044s-25.063 63.081-55.991 63.081c-29.796 0-54.151-26.237-55.894-59.295h31.002c1.6353 13.843 12.151 24.533 24.892 24.533 13.875 0 25.118-12.696 25.118-28.319s-11.243-28.283-25.118-28.283c-12.73 0-23.243 10.672-24.892 24.497h-31.002c1.7426-33.057 26.097-59.259 55.894-59.259zm727.55 23.405c12.273 0 23.719 3.9887 33.362 10.884l-14.386 22.75c-5.5762-3.6811-12.08-5.7876-19.008-5.7876-6.9311 0-13.4 2.1064-18.976 5.7876l-14.353-22.713c9.6525-6.9012 21.082-10.92 33.362-10.92zm-478.02 9.9007h14.806v1.1648h0.032v72.436c-8.1928 1.7631-14.386 9.8444-14.386 19.583 0 9.7388 6.1928 17.856 14.386 19.619v15.688c-8.1928 1.7629-14.386 9.8808-14.386 19.619 0 9.7385 6.1931 17.82 14.386 19.583v15.725c-8.1928 1.7633-14.386 9.8444-14.386 19.583 0 11.028 7.9535 19.983 17.748 19.983 9.794 0 17.715-8.9554 17.715-19.983 0-9.7262-6.1761-17.806-14.353-19.583v-15.725c8.1768-1.7774 14.353-9.8569 14.353-19.583 0-9.7262-6.1761-17.843-14.353-19.619v-15.688c8.1771-1.7771 14.353-9.8932 14.353-19.619 0-9.726-6.1761-17.806-14.353-19.583v-73.6h14.838c9.3033 0 16.778 10.628 16.778 23.842v226.44h-69.956v-226.44c0-13.214 7.4744-23.842 16.778-23.842h0.0004zm439.2 5.3872 14.353 22.713c-7.2622 6.9989-12.1 17.048-12.996 28.392h-24.795c0.9792-20.687 9.9264-38.983 23.437-51.105zm77.617 0c13.5 12.123 22.46 30.418 23.437 51.105h-24.795c-0.8927-11.344-5.736-21.393-12.996-28.392l14.353-22.713zm-1883.7 17.799h24.795c0.8927 11.344 5.736 21.393 12.996 28.392l-14.353 22.713c-13.511-12.123-22.458-30.418-23.437-51.105zm99.697 0h24.795c-0.9777 20.687-9.937 38.983-23.437 51.105l-14.353-22.713c7.2594-6.9989 12.103-17.048 12.996-28.392zm1548.7 22.204c12.273 0 23.719 3.9888 33.362 10.884l-14.386 22.75c-5.576-3.6811-12.078-5.7876-19.008-5.7876-6.9306 0-13.4 2.1064-18.976 5.7876l-14.353-22.713c9.6525-6.9012 21.082-10.92 33.362-10.92zm-1605.2 10.556c5.576 3.6811 12.045 5.7876 18.976 5.7876 6.9307 0 13.432-2.1064 19.008-5.7876l14.386 22.75c6.6254 10.478-21.088 10.884-33.362 10.884-12.279 0-23.709-4.0187-33.362-10.92l14.353-22.713zm1566.3 4.732 14.353 22.713c-7.2594 6.9996-12.103 17.048-12.996 28.392h-24.795c0.9791-20.687 9.9267-38.983 23.437-51.105zm77.618 0c13.5 12.123 22.459 30.418 23.437 51.105h-24.795c-0.8928-11.344-5.7359-21.393-12.995-28.392l14.353-22.713zm95.397 3.3852h24.795c0.8952 11.34 5.7393 21.393 12.996 28.392l-14.386 22.713c-13.496-12.129-22.426-30.43-23.405-51.105zm99.697 0h24.795c-0.9763 20.675-9.9161 38.977-23.405 51.105l-14.386-22.713c7.2561-6.9987 12.103-17.051 12.996-28.392zm-56.443 32.796c5.576 3.6811 12.045 5.7876 18.976 5.7876 6.9405 0 13.459-2.0966 19.041-5.7876l14.353 22.713c-9.6449 6.9022-21.085 10.92-33.362 10.92s-23.71-4.0177-33.362-10.92l14.353-22.713zm-1114.5 1.8928v27.919c-10.074 1.0057-18.999 6.4586-25.215 14.633l-20.172-16.161c10.766-15.213 27.015-25.287 45.387-26.39zm6.724 0c18.362 1.1018 34.616 11.157 45.387 26.353l-20.172 16.198c-6.2156-8.1702-15.144-13.628-25.215-14.633v-27.919zm868.08 20.602h24.795c0.8926 11.34 5.7395 21.393 12.996 28.392l-14.386 22.713c-13.496-12.129-22.426-30.43-23.405-51.105zm99.697 0h24.795c-0.9771 20.675-9.9188 38.977-23.405 51.105l-14.386-22.713c7.2561-6.9987 12.103-17.051 12.995-28.392zm-1023.8 11.939 20.172 16.161c-3.2693 6.2785-5.1401 13.563-5.1401 21.367 0 7.8038 1.8708 15.125 5.1401 21.403l-20.204 16.198c-6.1233-10.858-9.6658-23.745-9.6658-37.565 0-13.826 3.5691-26.696 9.6981-37.565zm105.29 0c6.13 10.867 9.6981 23.741 9.6981 37.565 0 13.823-3.5681 26.705-9.6981 37.565l-20.172-16.161c3.278-6.2841 5.14-13.624 5.14-21.439 0-7.8038-1.8707-15.088-5.14-21.367l20.172-16.161zm862.03 20.857c5.5761 3.6811 12.046 5.7876 18.976 5.7876 6.9408 0 13.459-2.0966 19.041-5.7876l14.353 22.713c-9.6449 6.9022-21.085 10.92-33.362 10.92s-23.71-4.0177-33.362-10.92l14.353-22.713zm-1124.6 20.457h14.062v138.97h-14.062v-138.97zm20.786 0h24.407v138.97h-24.407v-138.97zm353.24 15.142h128.73v53.981h-128.73v-53.981zm-192.67 8.6268c6.2159 8.174 15.141 13.627 25.215 14.633v27.919c-18.372-1.1009-34.621-11.189-45.387-26.39l20.172-16.161zm57.154 0 20.172 16.198c-10.772 15.185-27.026 25.253-45.387 26.353v-27.919c10.072-1.0049 19-6.4625 25.215-14.633zm-767.99 12.085h309.63c13.948 0 25.183 11.695 25.183 26.244v24.643h-37.596v-20.857c0-12.609-9.8855-22.75-22.176-22.75h-272.87c-12.291 0-22.144 10.141-22.144 22.75v49.322c0 12.609 9.8532 22.75 22.144 22.75h272.87c12.291 0 22.176-10.141 22.176-22.75v-20.893h37.596v24.679c0 14.55-11.234 26.281-25.183 26.281h-309.63c-13.948 0-25.183-11.731-25.183-26.281v-56.893c0-14.55 11.234-26.244 25.183-26.244zm10.28 15.324h12.414v78.769h-12.414v-78.769zm19.138 0h12.446v78.769h-12.446v-78.769zm19.17 0h12.446v78.769h-12.446v-78.769zm19.17 0h201.11c11.736 0 21.174 8.4161 21.174 18.891v16.671h-1.0345v0.0364h-64.331c-1.5658-9.2249-8.7429-16.198-17.392-16.198-8.6492 0-15.858 6.973-17.424 16.198h-13.933c-1.5656-9.2249-8.7752-16.198-17.424-16.198s-15.826 6.9734-17.392 16.198h-13.965c-1.566-9.2249-8.7429-16.198-17.392-16.198-9.7942 0-17.748 8.9555-17.748 19.983s7.9534 19.947 17.748 19.947c8.638 0 15.814-6.9543 17.392-16.162h13.965c1.5785 9.207 8.754 16.162 17.392 16.162s15.846-6.9543 17.424-16.162h13.933c1.5783 9.2072 8.7863 16.162 17.424 16.162 8.6378 0 15.814-6.9543 17.392-16.162h65.365v16.707c0 10.475-9.4384 18.891-21.174 18.891h-201.11v-78.769 0.00006-0.00005zm-64.202 0.4732v77.823c-9.4057-1.9281-16.39-9.4179-16.39-18.418v-40.986c0-9.0003 6.9843-16.49 16.39-18.418zm1869.3 2.3296h170.88v20.711h-170.88v-20.711zm-1487.6 0.3276h82.693v32.432h-82.693v-32.432zm989.5 30.94h69.956v14.014h-69.956v-14.014zm-335.81 16.125h197.58v21.221h-197.58v-21.221zm204.31 0h110.33v21.221h-110.33v-21.221zm131.51 5.46h69.956v14.014h-69.956v-14.014zm401.7 3.4944c35.714 0 64.926 31.385 66.982 71.016h-4.8814c-2.0511-36.603-29.073-65.556-62.1-65.556-0.5369 0-1.0827-0.0151-1.6164 0-32.289 0.92064-58.396 29.552-60.419 65.556h-4.9137c2.0561-39.631 31.235-71.016 66.95-71.016zm0 12.485c29.587 0 53.784 25.805 55.829 58.531h-31.034c-1.926-13.469-12.289-23.769-24.795-23.769s-22.869 10.3-24.795 23.769h-31.034c2.0441-32.726 26.241-58.531 55.829-58.531zm-401.7 5.6056h69.956v13.978h-69.956v-13.978zm0.4203 21.549h69.115c-1.7123 10.591-8.3642 18.455-16.358 18.455h-36.4c-7.9933 0-14.645-7.8642-16.358-18.455zm334.26 38.948h4.9137c1.4371 37.256 28.658 66.976 62.1 66.976s60.723-29.719 62.165-66.976h4.849c-1.4402 40.284-30.885 72.472-67.014 72.472s-65.574-32.188-67.014-72.472zm11.12 0h30.937c1.3481 14.191 11.995 25.225 24.956 25.225s23.608-11.034 24.956-25.225h30.969c-1.4348 33.385-25.921 59.987-55.926 59.987-30.004 0-54.46-26.601-55.894-59.987z" fill="#0ff" transform="matrix(-1 0 0 1 11370 361.02)" clip-path="url(#clipPath7188)"/>
            </g>
          </g>
        </g>
      </g>
      <g id="g3828" transform="matrix(-1 0 0 1 12000 -380)">
        <rect id="rect3830" y="-1522.6" width="800" height="350" x="5600"/>
        <g id="g3832" fill="#0ff" transform="matrix(.33287 0 0 .36787 4066 -1103.1)">
          <g id="g3834" fill="#0ff">
            <g id="g3836" fill="#0ff">
              <path id="path3838" d="m4745.2-1588.6c-14.932 0-26.928 13.177-26.928 29.557v363.63c0 16.38 11.997 29.557 26.928 29.557h25.862v28.501h-137.88v-293.05h-6.724v293.05h-18.394v-293.05h-6.7241v40.476h-63.005v78.551c-8.1908 1.7649-14.386 9.8823-14.386 19.619 0 9.7369 6.195 17.818 14.386 19.583v15.725c-8.1908 1.765-14.386 9.8459-14.386 19.583s6.1947 17.854 14.386 19.62v15.725c-8.1905 1.7653-14.386 9.8462-14.386 19.583 0 11.028 7.9535 19.984 17.748 19.984 9.7941 0 17.715-8.9555 17.715-19.984 0-9.726-6.1764-17.806-14.353-19.583v-15.725c8.1771-1.7772 14.353-9.8933 14.353-19.62 0-9.7263-6.1761-17.806-14.353-19.583v-15.725c8.1768-1.7774 14.353-9.857 14.353-19.583 0-9.7262-6.1761-17.842-14.353-19.619v-70.98h56.281v252.58h169.72v311.11h-134.61v-103.34c12.365-0.67459 23.884-5.0365 33.685-12.121l9.1162 14.414c-3.8422 5.6305-4.1493 13.657-0.2586 19.692 4.7366 7.3467 13.874 8.9369 20.398 3.6036 6.5247-5.3333 8.0017-15.585 3.2651-22.932-4.2209-6.5467-11.951-8.5458-18.2-5.1324l-8.8576-14.014c15.104-13.424 25.065-33.85 26.056-56.929h15.485c1.5234 7.2532 7.2882 12.667 14.192 12.667 8.0627 0 14.58-7.3742 14.58-16.453 0-9.0785-6.5168-16.453-14.58-16.453-6.9034 0-12.668 5.4139-14.192 12.667h-15.485c-0.9905-23.08-10.952-43.499-26.056-56.929l8.8576-13.978c6.2465 3.4031 13.982 1.3732 18.2-5.1688 4.7366-7.3467 3.2596-17.598-3.2651-22.932-6.5247-5.3333-15.662-3.7432-20.398 3.6036-3.8907 6.0347-3.5836 14.062 0.2586 19.692l-9.0839 14.378c-10.686-7.7357-23.396-12.194-37.047-12.194-13.641 0-26.358 4.4684-37.047 12.194l-9.1162-14.378c3.8423-5.6305 4.1494-13.658 0.2586-19.692-2.9604-4.5917-7.6305-6.9609-12.317-6.7704-2.8117 0.1143-5.635 1.1668-8.0818 3.1668-6.5247 5.3333-8.0016 15.585-3.265 22.932 4.2177 6.542 11.954 8.5719 18.2 5.1688l8.8576 14.014c-15.1 13.431-25.097 33.826-26.088 56.893h-15.452c-1.5234-7.2532-7.3205-12.667-14.224-12.667-8.0627 0-14.58 7.3742-14.58 16.453 0 9.0785 6.5168 16.453 14.58 16.453 6.9034 0 12.7-5.4139 14.224-12.667h15.452c0.9915 23.074 10.98 43.505 26.088 56.929l-8.8576 14.014c-6.2488-3.4134-13.979-1.4143-18.2 5.1324-4.7366 7.3467-3.2597 17.599 3.265 22.932 6.5247 5.3333 15.662 3.7431 20.398-3.6036 3.8908-6.0348 3.5837-14.062-0.2586-19.692l9.1162-14.414c9.7978 7.0784 21.296 11.441 33.652 12.121v103.34h-90.225c-11.972 0-22.034 9.1563-25.215 21.767h-44.126v170.06h6.724v-162.49h36.4c-0.01 0.32738-0.032 0.65278-0.032 0.98279v65.774c0 16.813 11.703 30.321 26.25 30.321h322.95c14.547 0 26.25-13.508 26.25-30.321v-29.12h36.012v124.85h6.7241v-124.85h82.693v52.306h106.71v72.548h6.7241v-72.548h235.28v72.548h6.724v-80.191h-242v-138.97h89.449c0.5994 13.922 4.4733 26.894 10.765 37.929l-12.802 10.265c-5.0005-4.3264-12.129-4.6721-17.489-0.2912-6.5247 5.3333-7.937 15.622-3.2004 22.968 4.7366 7.3467 13.841 9.0097 20.366 3.6764 5.8142-4.7526 7.5896-13.457 4.5581-20.493l12.446-9.9735c11.922 17.007 30.062 28.223 50.56 29.338v17.435c-6.4416 1.7153-11.25 8.2064-11.25 15.979 0 9.0785 6.5491 16.416 14.612 16.416 8.0627 0 14.612-7.3378 14.612-16.416 0-7.7731-4.8082-14.264-11.25-15.979v-17.435c20.498-1.1153 38.632-12.332 50.56-29.338l12.414 9.9735c-3.0223 7.0334-1.2196 15.744 4.5905 20.493 6.5247 5.3333 15.629 3.6703 20.366-3.6764 4.7366-7.3467 3.3244-17.635-3.2003-22.968-5.3596-4.3809-12.488-4.0352-17.489 0.2912l-12.769-10.228c6.8702-12.033 10.83-26.344 10.83-41.714 0-15.359-3.9685-29.679-10.83-41.714l12.769-10.265c5.0005 4.3264 12.129 4.6721 17.489 0.2912 6.5247-5.3333 7.9369-15.622 3.2003-22.968-4.7366-7.3467-13.841-9.0097-20.366-3.6764-5.8101 4.7491-7.6128 13.46-4.5905 20.493l-12.446 9.9735c-11.928-17.002-30.042-28.259-50.527-29.375v-17.399c6.4416-1.7153 11.25-8.2427 11.25-16.016 0-9.0784-6.5491-16.416-14.612-16.416-8.0627 0-14.612 7.3378-14.612 16.416 0 7.7732 4.8082 14.301 11.25 16.016v17.399c-20.492 1.1164-38.637 12.363-50.56 29.375l-12.446-9.9735c3.0316-7.0361 1.2561-15.74-4.5581-20.493-6.5247-5.3333-15.63-3.6703-20.366 3.6764-4.7366 7.3467-3.3243 17.635 3.2004 22.968 5.3596 4.3809 12.488 4.0352 17.489-0.2912l12.802 10.265c-6.2862 11.032-10.16 24.016-10.765 37.929h-89.449v-168.86c39.116-2.1386 70.247-38.528 70.247-83.101 0-44.658-31.252-81.055-70.473-83.064v-41.132h190.21v91.545c-8.1908 1.765-14.386 9.8824-14.386 19.62 0 9.7369 6.1951 17.818 14.386 19.583v15.725c-8.1908 1.7649-14.386 9.8459-14.386 19.583 0 9.7372 6.1948 17.854 14.386 19.62v15.725c-8.1905 1.7652-14.386 9.8462-14.386 19.583 0 11.028 7.9536 19.983 17.748 19.983 9.794 0 17.715-8.9555 17.715-19.983 0-9.7261-6.1764-17.806-14.353-19.583v-15.725c8.1772-1.7772 14.353-9.8932 14.353-19.62 0-9.7262-6.176-17.806-14.353-19.583v-15.725c8.1768-1.7774 14.353-9.8571 14.353-19.583 0-9.7263-6.176-17.842-14.353-19.62v-91.545h42.381v91.545c-8.1908 1.765-14.386 9.8824-14.386 19.62 0 9.7369 6.195 17.818 14.386 19.583v15.725c-8.1908 1.7649-14.386 9.8459-14.386 19.583 0 9.7372 6.1947 17.854 14.386 19.62v15.725c-8.1905 1.7652-14.386 9.8462-14.386 19.583 0 11.028 7.9535 19.983 17.748 19.983 9.7941 0 17.715-8.9555 17.715-19.983 0-9.7261-6.1764-17.806-14.353-19.583v-15.725c8.1771-1.7772 14.353-9.8932 14.353-19.62 0-9.7262-6.1761-17.806-14.353-19.583v-15.725c8.1768-1.7774 14.353-9.8571 14.353-19.583 0-9.7263-6.1761-17.842-14.353-19.62v-91.545h98.889v157.72c-39.372 1.8265-70.796 38.32-70.796 83.101 0 45.948 33.092 83.21 73.9 83.21 39.674 0 72.034-35.243 73.803-79.424h29.224v146.65h-135.45v211.59h6.724v-142.47h128.73v53.471h204.3v89h6.724v-89h110.33v31.304c0 16.38 11.997 29.557 26.928 29.557h58.415c14.932 0 26.928-13.177 26.928-29.557v-23.915h67.725c1.5674 9.2227 8.7766 16.198 17.424 16.198s15.824-6.9755 17.392-16.198h13.965c1.5675 9.2227 8.7443 16.198 17.392 16.198s15.857-6.9752 17.424-16.198h13.965c1.5679 9.2224 8.7446 16.198 17.392 16.198 9.7941 0 17.748-8.9556 17.748-19.983 0-11.028-7.9536-19.947-17.748-19.947-8.6378 0-15.813 6.9545-17.392 16.161h-13.965c-1.5783-9.2073-8.7863-16.161-17.424-16.161-8.638 0-15.814 6.9542-17.392 16.161h-13.965c-1.5785-9.207-8.7541-16.161-17.392-16.161-8.638 0-15.846 6.9542-17.424 16.161h-67.725v-332.15c0-16.38-11.997-29.557-26.928-29.557h-25.862v-62.316h72.154c1.7704 44.179 34.163 79.388 73.835 79.388 40.807 0 73.868-37.262 73.868-83.21s-33.06-83.174-73.868-83.174c-39.694 0-72.097 35.214-73.835 79.424h-72.154v-269.25h-6.724v269.25h-17.392v-269.25h-6.724v56.347h-230.36v-77.823h211.16v-7.5711h-33.103v-1.6016h-217.88v86.995h-185.95v123.25h-98.889v-225.35h-6.7241v225.35h-42.381v-225.35h-6.724v106.54h-82.66v-82.81h-6.7241v82.81h-216.14c-1.5784-9.2074-8.7863-16.162-17.424-16.162-8.6379 0-15.814 6.9545-17.392 16.162h-13.965c-1.5783-9.2074-8.754-16.162-17.392-16.162s-15.846 6.9541-17.424 16.162h-13.965c-1.5785-9.207-8.7542-16.162-17.392-16.162-9.794 0-17.748 8.9192-17.748 19.947s7.9536 19.983 17.748 19.983c8.6475 0 15.824-6.9755 17.392-16.198h13.965c1.5675 9.2227 8.7766 16.198 17.424 16.198 8.6477 0 15.824-6.9752 17.392-16.198h13.965c1.5677 9.2224 8.7445 16.198 17.392 16.198 8.6476 0 15.857-6.9752 17.424-16.198h216.14v53.617h-216.14c-1.5784-9.2074-8.7863-16.162-17.424-16.162-8.6379 0-15.814 6.9545-17.392 16.162h-13.965c-1.5783-9.2074-8.754-16.162-17.392-16.162s-15.846 6.9541-17.424 16.162h-13.965c-1.5785-9.207-8.7542-16.162-17.392-16.162-9.794 0-17.748 8.9191-17.748 19.947s7.9536 19.984 17.748 19.984c8.6475 0 15.824-6.9755 17.392-16.198h13.965c1.5675 9.2227 8.7766 16.198 17.424 16.198 8.6477 0 15.824-6.9752 17.392-16.198h13.965c1.5677 9.2224 8.7445 16.198 17.392 16.198 8.6476 0 15.857-6.9752 17.424-16.198h216.14v50.05h-107.55v48.703c-38.158 1.8933-68.8 36.321-70.505 79.279h-65.204c-1.7542-44.194-34.12-79.388-73.803-79.388-40.807 0-73.9 37.225-73.9 83.173s33.093 83.21 73.9 83.21c39.674 0 72.034-35.243 73.803-79.424h29.224v302.45h-89.417v40.003h-36.012v-29.083c0-16.813-11.702-30.321-26.25-30.321h-84.665v-75.675h64.719c1.5675 9.2227 8.7766 16.198 17.424 16.198s15.824-6.9755 17.392-16.198h13.965c1.5675 9.2227 8.7443 16.198 17.392 16.198s15.857-6.9752 17.424-16.198h13.965c1.5677 9.2224 8.7445 16.198 17.392 16.198 9.7941 0 17.748-8.9556 17.748-19.983 0-11.028-7.9535-19.947-17.748-19.947-8.6378 0-15.813 6.9545-17.392 16.161h-13.965c-1.5784-9.2073-8.7863-16.161-17.424-16.161-8.638 0-15.814 6.9542-17.392 16.161h-13.965c-1.5786-9.207-8.7542-16.161-17.392-16.161-8.638 0-15.846 6.9542-17.424 16.161h-64.719v-60.678h64.719c1.5675 9.2227 8.7766 16.198 17.424 16.198s15.824-6.9755 17.392-16.198h13.965c1.5675 9.2227 8.7443 16.198 17.392 16.198s15.857-6.9752 17.424-16.198h13.965c1.5677 9.2224 8.7445 16.198 17.392 16.198 9.7941 0 17.748-8.9556 17.748-19.983 0-11.028-7.9535-19.947-17.748-19.947-8.6378 0-15.813 6.9545-17.392 16.162h-13.965c-1.5784-9.2073-8.7863-16.162-17.424-16.162-8.638 0-15.814 6.9542-17.392 16.162h-13.965c-1.5786-9.207-8.7542-16.162-17.392-16.162-8.638 0-15.846 6.9542-17.424 16.162h-64.719v-195.69h25.829c14.932 0 26.928-13.177 26.928-29.557v-363.63c0-16.38-11.997-29.557-26.928-29.557h-58.415zm3.9439 8.6996h50.527c12.922 0 23.308 12.65 23.308 28.355v348.64c0 15.706-10.386 28.355-23.308 28.355h-21.886v-42.333h18.524c11.198 0 20.204-11.131 20.204-24.97v-307.25c0-13.839-9.006-24.934-20.204-24.934h-43.803c-11.198 0-20.204 11.094-20.204 24.934v307.25c0 13.839 9.0059 24.97 20.204 24.97h18.556v42.333h-21.918c-12.922 0-23.34-12.65-23.34-28.355v-348.64c0-15.706 10.418-28.355 23.34-28.355zm7.0473 13.905h36.4c7.9934 0 14.645 7.8641 16.358 18.455h-69.115c1.7124-10.591 8.3642-18.455 16.358-18.455zm-16.778 26.026h69.956v13.978h-69.956v-13.978zm0 21.549h69.956v14.014h-69.956v-14.014zm0 21.585h69.956v14.014h-69.956v-14.014zm0 21.585h69.956v226.44c0 13.214-7.4745 23.842-16.778 23.842h-14.806v-1.1648h-0.032v-72.436c8.1927-1.7631 14.386-9.8444 14.386-19.583 0-9.7388-6.1928-17.856-14.386-19.619v-15.688c8.1927-1.763 14.386-9.8808 14.386-19.62 0-9.7385-6.1931-17.82-14.386-19.583v-15.725c8.1927-1.7632 14.386-9.8443 14.386-19.583 0-11.028-7.9534-19.984-17.748-19.984-9.794 0-17.715 8.9554-17.715 19.984 0 9.7262 6.1762 17.806 14.353 19.583v15.725c-8.1768 1.7774-14.353 9.857-14.353 19.583 0 9.7262 6.1762 17.843 14.353 19.62v15.688c-8.177 1.7771-14.353 9.8932-14.353 19.619 0 9.726 6.1762 17.806 14.353 19.583v73.6h-14.838c-9.3034 0-16.778-10.627-16.778-23.842v-226.44h-0.0002zm1824.8 21.803c-14.932 0-26.928 13.177-26.928 29.557v40.95h-218.27v58.967c-39.102 2.1547-70.214 38.503-70.214 83.064s31.112 80.944 70.214 83.101v67.23h-96.367v-331.31h-6.724v70.506h-66.917c-1.5783-9.2073-8.7863-16.161-17.424-16.161-8.6379 0-15.814 6.9545-17.392 16.161h-13.965c-1.5784-9.2073-8.754-16.161-17.392-16.161s-15.846 6.9541-17.424 16.161h-13.965c-1.5785-9.2069-8.7542-16.161-17.392-16.161-9.794 0-17.748 8.9191-17.748 19.947s7.9536 19.984 17.748 19.984c8.6474 0 15.824-6.9755 17.392-16.198h13.965c1.5675 9.2227 8.7766 16.198 17.424 16.198 8.6476 0 15.824-6.9752 17.392-16.198h13.965c1.5677 9.2224 8.7444 16.198 17.392 16.198s15.857-6.9752 17.424-16.198h66.917v53.617h-66.917c-1.5783-9.2073-8.7863-16.162-17.424-16.162-8.6379 0-15.814 6.9546-17.392 16.162h-13.965c-1.5784-9.2073-8.754-16.162-17.392-16.162s-15.846 6.9542-17.424 16.162h-13.965c-1.5785-9.2069-8.7542-16.162-17.392-16.162-9.794 0-17.748 8.9192-17.748 19.947s7.9536 19.984 17.748 19.984c8.6474 0 15.824-6.9756 17.392-16.198h13.965c1.5675 9.2227 8.7766 16.198 17.424 16.198 8.6476 0 15.824-6.9752 17.392-16.198h13.965c1.5677 9.2223 8.7444 16.198 17.392 16.198s15.857-6.9752 17.424-16.198h66.917v302.37c-12.356 0.68045-23.855 5.0427-33.653 12.121l-9.1162-14.414c3.8423-5.6305 4.1494-13.657 0.2586-19.692-4.7366-7.3467-13.874-8.9369-20.398-3.6036-6.5247 5.3334-8.0016 15.585-3.265 22.932 4.2208 6.5467 11.951 8.5458 18.2 5.1324l8.8576 14.014c-15.108 13.425-25.096 33.855-26.088 56.929h-15.452c-1.5234-7.2532-7.3205-12.667-14.224-12.667-8.0627 0-14.58 7.3742-14.58 16.453 0 9.0785 6.5168 16.453 14.58 16.453 6.9035 0 12.701-5.414 14.224-12.667h15.452c0.9911 23.067 10.988 43.462 26.088 56.893l-8.8576 14.014c-6.2464-3.4031-13.982-1.3732-18.2 5.1688-4.7366 7.3467-3.2597 17.599 3.265 22.932 6.5248 5.3333 15.662 3.7431 20.398-3.6036 3.8908-6.0348 3.5837-14.062-0.2586-19.692l9.1162-14.378c10.688 7.7255 23.406 12.194 37.047 12.194 13.651 0 26.36-4.4582 37.047-12.194l9.0839 14.378c-3.8422 5.6305-4.1493 13.657-0.2586 19.692 4.7366 7.3467 13.877 8.9369 20.398 3.6036 6.5254-5.3333 8.0017-15.585 3.265-22.932-4.2177-6.542-11.954-8.5719-18.2-5.1688l-8.8577-13.978c15.106-13.43 25.063-33.849 26.056-56.929h15.485c1.5234 7.2532 7.2885 12.667 14.192 12.667 8.0631 0 14.58-7.3742 14.58-16.453 0-9.0785-6.5165-16.453-14.58-16.453-6.903 0-12.668 5.4139-14.192 12.667h-15.485c-0.9934-23.079-10.95-43.505-26.056-56.929l8.8577-14.014c6.2471 3.4134 13.979 1.4143 18.2-5.1324 4.7367-7.3467 3.2604-17.598-3.265-22.932-6.5222-5.3333-15.662-3.7431-20.398 3.6036-3.8907 6.0348-3.5836 14.062 0.2586 19.692l-9.1162 14.414c-9.8004-7.0846-21.32-11.447-33.685-12.121v-102.76h103.35v-7.5712h-0.2586v-67.194c39.389-1.8064 70.861-38.342 70.861-83.137s-31.472-81.296-70.861-83.101v-51.36h109.59v22.532c-8.1762 1.7771-14.353 9.8932-14.353 19.619 0 9.7262 6.1774 17.806 14.353 19.583v15.725c-8.1762 1.7772-14.353 9.8568-14.353 19.583s6.1771 17.842 14.353 19.619v15.725c-8.1759 1.7774-14.353 9.8571-14.353 19.583 0 11.028 7.9222 19.984 17.715 19.984 9.7946 0 17.748-8.9556 17.748-19.984 0-9.7369-6.1951-17.818-14.386-19.583v-15.725c8.1914-1.765 14.386-9.8822 14.386-19.619 0-9.7371-6.1942-17.818-14.386-19.583v-15.725c8.1905-1.7652 14.386-9.8461 14.386-19.583 0-9.7371-6.1942-17.854-14.386-19.619v-22.532h42.058v22.532c-8.1771 1.7771-14.353 9.8932-14.353 19.619 0 9.7262 6.1763 17.806 14.353 19.583v15.725c-8.1771 1.7772-14.353 9.8568-14.353 19.583s6.1761 17.842 14.353 19.619v15.725c-8.1769 1.7774-14.353 9.8571-14.353 19.583 0 11.028 7.9211 19.984 17.715 19.984s17.748-8.9556 17.748-19.984c0-9.7369-6.1951-17.818-14.386-19.583v-15.725c8.1907-1.765 14.386-9.8822 14.386-19.619 0-9.7371-6.1949-17.818-14.386-19.583v-15.725c8.1905-1.7652 14.386-9.8461 14.386-19.583 0-9.7371-6.1949-17.854-14.386-19.619v-22.532h46.454v246.39h-124.98v93.438c-12.356 0.6805-23.79 5.0427-33.588 12.121l-9.1163-14.414c3.8423-5.6304 4.1494-13.657 0.2586-19.692-4.7366-7.3467-13.873-8.9369-20.398-3.6036-6.5221 5.3333-8.0016 15.585-3.265 22.932 4.2208 6.5467 11.951 8.5457 18.2 5.1323l8.8575 14.014c-15.106 13.424-25.096 33.855-26.088 56.929h-15.452c-1.5234-7.2532-7.3205-12.667-14.224-12.667-8.0627 0-14.58 7.3742-14.58 16.453 0 9.0785 6.5168 16.453 14.58 16.453 6.9035 0 12.701-5.414 14.224-12.667h15.452c0.9911 23.067 10.989 43.462 26.088 56.893l-8.8575 14.014c-6.2481-3.4031-13.982-1.3732-18.2 5.1688-4.7366 7.3467-3.2567 17.599 3.265 22.932 6.5254 5.3333 15.662 3.7431 20.398-3.6036 3.8908-6.0348 3.5837-14.062-0.2586-19.692l9.1163-14.378c9.7889 7.0754 21.277 11.404 33.62 12.085v216.47h-15.872c-2.0774-43.855-34.336-78.696-73.803-78.696-40.807 0-73.9 37.225-73.9 83.173s33.093 83.21 73.9 83.21c39.889 0 72.391-35.598 73.835-80.116h22.564v-57.912h90.774v88.163h6.724v-95.734h-97.498v-41.168h170.88v0.0364h6.7241l0.064-194.23h38.728v331.1h6.724v-338.67h-45.452l0.032-65.192h25.862c14.931 0 26.928-13.177 26.928-29.557v-363.63c0-16.38-11.998-29.557-26.928-29.557h-58.415 0.0008l0.0002-0.0001zm3.944 8.6996h50.527c12.923 0 23.34 12.65 23.34 28.355v348.64c0 15.706-10.417 28.356-23.34 28.356h-21.918v-42.333h18.556c11.199 0 20.204-11.131 20.204-24.97v-307.25c0-13.839-9.0052-24.934-20.204-24.934h-43.803c-11.198 0-20.204 11.094-20.204 24.934v307.25c0 13.839 9.006 24.97 20.204 24.97h18.524v42.333h-21.886c-12.922 0-23.308-12.65-23.308-28.356v-348.64c0-15.706 10.386-28.355 23.308-28.355zm-903.19 4.8047h26.379v79.425h-26.379v-79.424zm910.27 9.1h36.4c9.3022 0 16.778 10.628 16.778 23.842v293.35c0 13.214-7.4758 23.842-16.778 23.842h-14.838v-73.6c8.177-1.777 14.353-9.8568 14.353-19.583s-6.1762-17.842-14.353-19.619v-15.688c8.177-1.777 14.353-9.8933 14.353-19.62 0-9.7261-6.1764-17.806-14.353-19.583v-15.725c8.177-1.7772 14.353-9.8568 14.353-19.583 0-11.028-7.9212-19.984-17.715-19.984-9.7941 0-17.748 8.9554-17.748 19.984 0 9.7387 6.1928 17.82 14.386 19.583v15.725c-8.1924 1.7634-14.386 9.8446-14.386 19.583 0 9.7387 6.1928 17.856 14.386 19.62v15.688c-8.1927 1.7631-14.386 9.8807-14.386 19.619 0 9.7386 6.1928 17.82 14.386 19.583v73.6h-14.838c-9.3019 0-16.778-10.628-16.778-23.842v-293.35c0-13.214 7.4758-23.842 16.778-23.842zm-1096.2 77.896h179.22v56.238h-121.26c-14.547 0-26.25 13.508-26.25 30.321v29.12h-31.713v-115.68zm185.95 0h26.379v56.238h-26.379v-56.238zm33.103 0h230.36v212.9h24.116v19.656h-473.53v-109.31h31.713v29.083c0 16.813 11.702 30.321 26.25 30.321h322.95c14.547 0 26.25-13.508 26.25-30.321v-65.774c0-16.813-11.702-30.321-26.25-30.321h-161.86v-56.238zm-463.15 4.4407h82.66v53.617h-82.66v-53.617zm1090.8 32.177c35.626 1.803 64.04 34.86 64.04 75.42s-28.414 73.654-64.04 75.457v-5.46c32.949-1.7862 59.158-32.452 59.158-69.997s-26.209-68.14-59.158-69.924v-5.4964zm-6.724 0.036v5.4599c-32.652 2.1418-58.512 32.62-58.512 69.924 0 37.299 25.866 67.811 58.512 69.96v5.4599c-35.338-2.1506-63.394-35.094-63.394-75.42s28.055-73.233 63.394-75.384zm6.724 12.449c29.511 1.7792 52.952 29.261 52.952 62.935s-23.441 61.192-52.952 62.972v-34.907c12.433-1.6965 22.079-13.606 22.079-28.064 0-14.459-9.6461-26.368-22.079-28.064v-34.871zm-6.724 0.073v34.871c-12.138 1.9966-21.433 13.77-21.433 27.992 0 14.221 9.2947 25.995 21.433 27.991v34.907c-29.221-2.1228-52.305-29.46-52.305-62.899s23.084-60.739 52.305-62.862zm-775.37 15.543h309.63c13.948 0 25.183 11.731 25.183 26.281v56.893c0 14.55-11.234 26.244-25.183 26.244h-309.63c-13.948 0-25.183-11.695-25.183-26.244v-24.643h37.596v20.857c0 12.609 9.8855 22.75 22.176 22.75h272.87c12.291 0 22.144-10.141 22.144-22.75v-49.322c0-12.609-9.8531-22.75-22.144-22.75h-272.87c-12.291 0-22.176 10.14-22.176 22.75v20.893h-37.596v-24.679c0-14.55 11.234-26.281 25.183-26.281zm-308.72 0.91h82.66v50.05h-82.66v-50.05zm349.49 14.414h201.11v78.769h-201.11c-11.736 0-21.174-8.4161-21.174-18.891v-16.671h1.0345v-0.036h64.331c1.5658 9.225 8.7429 16.198 17.392 16.198s15.858-6.9729 17.424-16.198h13.933c1.5657 9.225 8.7753 16.198 17.424 16.198 8.6489 0 15.826-6.9733 17.392-16.198h13.965c1.566 9.225 8.7429 16.198 17.392 16.198 9.7941 0 17.748-8.9554 17.748-19.983s-7.9535-19.947-17.748-19.947c-8.638 0-15.814 6.9543-17.392 16.162h-13.965c-1.5785-9.207-8.7541-16.162-17.392-16.162-8.638 0-15.846 6.9543-17.424 16.162h-13.933c-1.5783-9.2072-8.7863-16.162-17.424-16.162-8.6379 0-15.814 6.9543-17.392 16.162h-65.365v-16.708c0-10.475 9.4384-18.892 21.174-18.892v-0.0004zm207.83 0h12.446v78.769h-12.446v-78.769zm19.17 0h12.446v78.769h-12.446v-78.769zm19.17 0h12.414v78.769h-12.414v-78.769zm19.138 0.4732c9.4057 1.928 16.39 9.4179 16.39 18.418v40.986c0 9.0003-6.9842 16.49-16.39 18.418v-77.823zm255.55 53.071c37.048 0 67.046 33.777 67.046 75.493s-29.998 75.566-67.046 75.566c-35.912 0-65.249-31.799-67.014-71.744h4.8491c1.7633 36.916 28.94 66.248 62.165 66.248 34.364 0 62.197-31.376 62.197-70.07 0-38.089-26.992-69.074-60.613-70.033-0.5336-0.015-1.0471 0-1.584 0-33.246 0-60.433 29.336-62.165 66.284h-4.8491c1.7333-39.976 31.08-71.744 67.014-71.744zm0 12.449c30.928 0 55.958 28.22 55.958 63.044s-25.031 63.081-55.958 63.081c-29.786 0-54.167-26.217-55.926-59.259h31.002c1.6492 13.825 12.162 24.497 24.892 24.497 13.875 0 25.118-12.66 25.118-28.283s-11.243-28.319-25.118-28.319c-12.741 0-23.257 10.691-24.892 24.533h-31.002c1.7267-33.074 26.118-59.295 55.926-59.295zm-1194.1 25.917c35.923 0 65.265 31.749 67.014 71.708h-4.8814c-1.7474-36.931-28.897-66.248-62.133-66.248-0.537 0-1.0827-0.015-1.6164 0-33.621 0.9586-60.581 31.944-60.581 70.033 0 38.693 27.833 70.07 62.197 70.07 33.236 0 60.385-29.351 62.133-66.284h4.8814c-1.7494 39.962-31.091 71.744-67.014 71.744-37.049 0-67.079-33.813-67.079-75.53 0-41.716 30.03-75.493 67.079-75.493zm209.45 0.1092h0.065v5.4236c-31.719 1.8606-57.146 30.471-58.835 66.175h-4.8814c1.6947-38.71 29.27-69.698 63.652-71.598h-0.0003zm6.7887 0c35.459 2.0026 63.652 34.959 63.652 75.384 0 40.338-28.073 73.288-63.426 75.42v-5.4964c32.661-2.1315 58.544-32.612 58.544-69.924 0-37.402-25.998-67.926-58.771-69.924v-5.46zm-216.24 12.34c29.796 0 54.151 26.202 55.894 59.259h-31.002c-1.6492-13.825-12.162-24.497-24.892-24.497-13.875 0-25.118 12.66-25.118 28.283s11.243 28.319 25.118 28.319c12.741 0 23.256-10.691 24.892-24.533h31.002c-1.7426 33.059-26.097 59.295-55.894 59.295-30.928 0-55.99-28.257-55.99-63.081s25.063-63.044 55.99-63.044zm209.51 0.1091v34.907c-11.213 1.6544-20.09 11.629-21.594 24.242h-31.002c1.6779-31.83 24.318-57.302 52.596-59.15zm6.724 0c29.328 1.9967 52.564 29.41 52.564 62.935 0 33.439-23.117 60.81-52.338 62.935v-34.907c12.137-2.0019 21.465-13.806 21.465-28.028 0-14.309-9.4444-26.141-21.692-28.028v-34.907zm1291.7 47.028h118.19v61.152c0 16.38 11.997 29.557 26.928 29.557h25.83l-0.097 231.1h-170.88v-81.499c12.4-0.65591 23.928-5.0113 33.75-12.121l9.0839 14.378c-3.8427 5.6305-4.15 13.657-0.2586 19.692 4.7366 7.3467 13.874 8.9369 20.398 3.6036 6.5247-5.3333 8.0017-15.585 3.2651-22.932-4.2185-6.542-11.954-8.5719-18.2-5.1688l-8.8576-13.978c15.104-13.43 25.065-33.849 26.056-56.929h15.485c1.5226 7.2532 7.2881 12.667 14.192 12.667 8.0627 0 14.58-7.3742 14.58-16.453 0-9.0785-6.5168-16.453-14.58-16.453-6.9034 0-12.669 5.4139-14.192 12.667h-15.485c-0.9905-23.079-10.952-43.505-26.056-56.929l8.8576-14.014c6.2488 3.4135 13.977 1.4144 18.2-5.1323 4.7366-7.3467 3.2596-17.598-3.2651-22.932-6.5247-5.3333-15.662-3.7431-20.398 3.6036-3.8914 6.0348-3.5841 14.062 0.2586 19.692l-9.1163 14.414c-9.8002-7.0846-21.322-11.447-33.685-12.121v-85.867h0.0002-0.0003zm-940.07 8.5904h473.53v35.089h-25.829c-14.932 0-26.928 13.177-26.928 29.557v295.97h-314.64v-48.011h149.8c1.5675 9.2227 8.7766 16.198 17.424 16.198 8.6475 0 15.824-6.9755 17.392-16.198h13.965c1.5675 9.2227 8.7444 16.198 17.392 16.198 8.6477 0 15.857-6.9752 17.424-16.198h13.965c1.5677 9.2224 8.7446 16.198 17.392 16.198 9.794 0 17.748-8.9556 17.748-19.983 0-11.028-7.9535-19.947-17.748-19.947-8.6378 0-15.814 6.9545-17.392 16.161h-13.965c-1.5784-9.2073-8.7863-16.161-17.424-16.161-8.638 0-15.814 6.9542-17.392 16.161h-13.965c-1.5785-9.207-8.7542-16.161-17.392-16.161-8.638 0-15.846 6.9542-17.424 16.161h-149.8v-51.251h149.8c1.5675 9.2227 8.7766 16.198 17.424 16.198 8.6475 0 15.824-6.9755 17.392-16.198h13.965c1.5675 9.2227 8.7444 16.198 17.392 16.198 8.6477 0 15.857-6.9752 17.424-16.198h13.965c1.5677 9.2224 8.7446 16.198 17.392 16.198 9.794 0 17.748-8.9556 17.748-19.983 0-11.028-7.9535-19.947-17.748-19.947-8.6378 0-15.814 6.9545-17.392 16.161h-13.965c-1.5784-9.2073-8.7863-16.161-17.424-16.161-8.638 0-15.814 6.9542-17.392 16.161h-13.965c-1.5785-9.207-8.7542-16.161-17.392-16.161-8.638 0-15.846 6.9542-17.424 16.161h-149.8v-118.48h29.256c1.7686 44.181 34.129 79.424 73.803 79.424 40.807 0 73.9-37.262 73.9-83.21s-33.092-83.173-73.9-83.173c-39.683 0-72.048 35.194-73.803 79.388h-65.204c-1.7004-42.837-32.174-77.208-70.182-79.279v-40.877zm-458.14 11.102h29.256c1.7226 43.031 32.478 77.544 70.732 79.315v168.86h-51.917v146.51h-48.07v-394.68zm36.045 0h4.8814c1.6933 35.79 27.236 64.472 59.062 66.211v5.4235c-34.516-1.7441-62.244-32.814-63.943-71.635zm11.12 0h31.002c1.5019 12.713 10.494 22.759 21.821 24.315v34.871c-28.384-1.7288-51.14-27.27-52.822-59.186zm-434.9 32.287c12.277 0 23.717 4.0177 33.362 10.92l-14.353 22.713c-5.5814-3.6909-12.1-5.7875-19.041-5.7875-6.9307 0-13.4 2.1064-18.976 5.7875l-14.353-22.713c9.6513-6.9022 21.085-10.92 33.362-10.92zm1297.5 0.4004h21.885v42.333h-18.523c-11.198 0-20.204 11.131-20.204 24.97v307.25c0 13.839 9.006 24.934 20.204 24.934h43.803c11.198 0 20.204-11.094 20.204-24.934v-307.25c0-13.838-9.0059-24.97-20.204-24.97h-18.556v-42.333h21.918c12.922 0 23.34 12.65 23.34 28.355v348.64c0 15.706-10.418 28.355-23.34 28.355h-50.527c-12.922 0-23.308-12.65-23.308-28.355v-348.64c0-15.706 10.386-28.355 23.308-28.355zm-455.26 4.6591c35.923 0 65.265 31.749 67.014 71.708h-4.8814c-1.7473-36.931-28.897-66.248-62.133-66.248-0.537 0-1.0827-0.015-1.6164 0-33.621 0.9586-60.581 31.944-60.581 70.033 0 38.693 27.833 70.07 62.197 70.07 33.236 0 60.385-29.351 62.133-66.284h4.8814c-1.7493 39.961-31.091 71.744-67.014 71.744-37.049 0-67.079-33.813-67.079-75.53 0-41.716 30.03-75.493 67.079-75.493zm212.81 0c37.049 0 67.079 33.777 67.079 75.493s-30.03 75.53-67.079 75.53c-35.923 0-65.265-31.782-67.014-71.744h4.8814c1.7473 36.933 28.897 66.284 62.133 66.284 34.364 0 62.197-31.376 62.197-70.07 0-38.089-26.96-69.075-60.581-70.033-0.5337-0.015-1.0794 0-1.6164 0-33.236 0-60.385 29.316-62.133 66.248h-4.8814c1.7493-39.959 31.091-71.708 67.014-71.708zm-1093.9 10.265 14.386 22.713c-7.2561 6.9987-12.103 17.052-12.996 28.392h-24.795c0.9785-20.675 9.9083-38.977 23.405-51.105zm77.682 0c13.486 12.129 22.428 30.43 23.405 51.105h-24.795c-0.8925-11.34-5.7395-21.393-12.996-28.392l14.386-22.713zm803.43 2.1839c29.796 0 54.151 26.202 55.894 59.259h-31.002c-1.6491-13.825-12.162-24.497-24.892-24.497-13.875 0-25.118 12.66-25.118 28.283s11.243 28.319 25.118 28.319c12.741 0 23.256-10.691 24.892-24.533h31.002c-1.7426 33.06-26.097 59.295-55.894 59.295-30.928 0-55.991-28.257-55.991-63.081s25.063-63.044 55.991-63.044zm212.81 0c30.928 0 55.991 28.22 55.991 63.044s-25.063 63.081-55.991 63.081c-29.796 0-54.151-26.237-55.894-59.295h31.002c1.6353 13.843 12.151 24.533 24.892 24.533 13.875 0 25.118-12.696 25.118-28.319s-11.243-28.283-25.118-28.283c-12.73 0-23.243 10.672-24.892 24.497h-31.002c1.7426-33.057 26.097-59.259 55.894-59.259zm727.55 23.405c12.273 0 23.719 3.9887 33.362 10.884l-14.386 22.75c-5.5762-3.6811-12.08-5.7876-19.008-5.7876-6.9311 0-13.4 2.1064-18.976 5.7876l-14.353-22.713c9.6525-6.9012 21.082-10.92 33.362-10.92zm-478.02 9.9007h14.806v1.1648h0.032v72.436c-8.1928 1.7631-14.386 9.8444-14.386 19.583 0 9.7388 6.1928 17.856 14.386 19.619v15.688c-8.1928 1.7629-14.386 9.8808-14.386 19.619 0 9.7385 6.1931 17.82 14.386 19.583v15.725c-8.1928 1.7633-14.386 9.8444-14.386 19.583 0 11.028 7.9535 19.983 17.748 19.983 9.794 0 17.715-8.9554 17.715-19.983 0-9.7262-6.1761-17.806-14.353-19.583v-15.725c8.1768-1.7774 14.353-9.8569 14.353-19.583 0-9.7262-6.1761-17.843-14.353-19.619v-15.688c8.1771-1.7771 14.353-9.8932 14.353-19.619 0-9.726-6.1761-17.806-14.353-19.583v-73.6h14.838c9.3033 0 16.778 10.628 16.778 23.842v226.44h-69.956v-226.44c0-13.214 7.4744-23.842 16.778-23.842h0.0004zm439.2 5.3872 14.353 22.713c-7.2622 6.9989-12.1 17.048-12.996 28.392h-24.795c0.9792-20.687 9.9264-38.983 23.437-51.105zm77.617 0c13.5 12.123 22.46 30.418 23.437 51.105h-24.795c-0.8927-11.344-5.736-21.393-12.996-28.392l14.353-22.713zm-1883.7 17.799h24.795c0.8927 11.344 5.736 21.393 12.996 28.392l-14.353 22.713c-13.511-12.123-22.458-30.418-23.437-51.105zm99.697 0h24.795c-0.9777 20.687-9.937 38.983-23.437 51.105l-14.353-22.713c7.2594-6.9989 12.103-17.048 12.996-28.392zm1548.7 22.204c12.273 0 23.719 3.9888 33.362 10.884l-14.386 22.75c-5.576-3.6811-12.078-5.7876-19.008-5.7876-6.9306 0-13.4 2.1064-18.976 5.7876l-14.353-22.713c9.6525-6.9012 21.082-10.92 33.362-10.92zm-1605.2 10.556c5.576 3.6811 12.045 5.7876 18.976 5.7876 6.9307 0 13.432-2.1064 19.008-5.7876l14.386 22.75c6.6254 10.478-21.088 10.884-33.362 10.884-12.279 0-23.709-4.0187-33.362-10.92l14.353-22.713zm1566.3 4.732 14.353 22.713c-7.2594 6.9996-12.103 17.048-12.996 28.392h-24.795c0.9791-20.687 9.9267-38.983 23.437-51.105zm77.618 0c13.5 12.123 22.459 30.418 23.437 51.105h-24.795c-0.8928-11.344-5.7359-21.393-12.995-28.392l14.353-22.713zm95.397 3.3852h24.795c0.8952 11.34 5.7393 21.393 12.996 28.392l-14.386 22.713c-13.496-12.129-22.426-30.43-23.405-51.105zm99.697 0h24.795c-0.9763 20.675-9.9161 38.977-23.405 51.105l-14.386-22.713c7.2561-6.9987 12.103-17.051 12.996-28.392zm-56.443 32.796c5.576 3.6811 12.045 5.7876 18.976 5.7876 6.9405 0 13.459-2.0966 19.041-5.7876l14.353 22.713c-9.6449 6.9022-21.085 10.92-33.362 10.92s-23.71-4.0177-33.362-10.92l14.353-22.713zm-1114.5 1.8928v27.919c-10.074 1.0057-18.999 6.4586-25.215 14.633l-20.172-16.161c10.766-15.213 27.015-25.287 45.387-26.39zm6.724 0c18.362 1.1018 34.616 11.157 45.387 26.353l-20.172 16.198c-6.2156-8.1702-15.144-13.628-25.215-14.633v-27.919zm868.08 20.602h24.795c0.8926 11.34 5.7395 21.393 12.996 28.392l-14.386 22.713c-13.496-12.129-22.426-30.43-23.405-51.105zm99.697 0h24.795c-0.9771 20.675-9.9188 38.977-23.405 51.105l-14.386-22.713c7.2561-6.9987 12.103-17.051 12.995-28.392zm-1023.8 11.939 20.172 16.161c-3.2693 6.2785-5.1401 13.563-5.1401 21.367 0 7.8038 1.8708 15.125 5.1401 21.403l-20.204 16.198c-6.1233-10.858-9.6658-23.745-9.6658-37.565 0-13.826 3.5691-26.696 9.6981-37.565zm105.29 0c6.13 10.867 9.6981 23.741 9.6981 37.565 0 13.823-3.5681 26.705-9.6981 37.565l-20.172-16.161c3.278-6.2841 5.14-13.624 5.14-21.439 0-7.8038-1.8707-15.088-5.14-21.367l20.172-16.161zm862.03 20.857c5.5761 3.6811 12.046 5.7876 18.976 5.7876 6.9408 0 13.459-2.0966 19.041-5.7876l14.353 22.713c-9.6449 6.9022-21.085 10.92-33.362 10.92s-23.71-4.0177-33.362-10.92l14.353-22.713zm-1124.6 20.457h14.062v138.97h-14.062v-138.97zm20.786 0h24.407v138.97h-24.407v-138.97zm353.24 15.142h128.73v53.981h-128.73v-53.981zm-192.67 8.6268c6.2159 8.174 15.141 13.627 25.215 14.633v27.919c-18.372-1.1009-34.621-11.189-45.387-26.39l20.172-16.161zm57.154 0 20.172 16.198c-10.772 15.185-27.026 25.253-45.387 26.353v-27.919c10.072-1.0049 19-6.4625 25.215-14.633zm-767.99 12.085h309.63c13.948 0 25.183 11.695 25.183 26.244v24.643h-37.596v-20.857c0-12.609-9.8855-22.75-22.176-22.75h-272.87c-12.291 0-22.144 10.141-22.144 22.75v49.322c0 12.609 9.8532 22.75 22.144 22.75h272.87c12.291 0 22.176-10.141 22.176-22.75v-20.893h37.596v24.679c0 14.55-11.234 26.281-25.183 26.281h-309.63c-13.948 0-25.183-11.731-25.183-26.281v-56.893c0-14.55 11.234-26.244 25.183-26.244zm10.28 15.324h12.414v78.769h-12.414v-78.769zm19.138 0h12.446v78.769h-12.446v-78.769zm19.17 0h12.446v78.769h-12.446v-78.769zm19.17 0h201.11c11.736 0 21.174 8.4161 21.174 18.891v16.671h-1.0345v0.0364h-64.331c-1.5658-9.2249-8.7429-16.198-17.392-16.198-8.6492 0-15.858 6.973-17.424 16.198h-13.933c-1.5656-9.2249-8.7752-16.198-17.424-16.198s-15.826 6.9734-17.392 16.198h-13.965c-1.566-9.2249-8.7429-16.198-17.392-16.198-9.7942 0-17.748 8.9555-17.748 19.983s7.9534 19.947 17.748 19.947c8.638 0 15.814-6.9543 17.392-16.162h13.965c1.5785 9.207 8.754 16.162 17.392 16.162s15.846-6.9543 17.424-16.162h13.933c1.5783 9.2072 8.7863 16.162 17.424 16.162 8.6378 0 15.814-6.9543 17.392-16.162h65.365v16.707c0 10.475-9.4384 18.891-21.174 18.891h-201.11v-78.769 0.00006-0.00005zm-64.202 0.4732v77.823c-9.4057-1.9281-16.39-9.4179-16.39-18.418v-40.986c0-9.0003 6.9843-16.49 16.39-18.418zm1869.3 2.3296h170.88v20.711h-170.88v-20.711zm-1487.6 0.3276h82.693v32.432h-82.693v-32.432zm989.5 30.94h69.956v14.014h-69.956v-14.014zm-335.81 16.125h197.58v21.221h-197.58v-21.221zm204.31 0h110.33v21.221h-110.33v-21.221zm131.51 5.46h69.956v14.014h-69.956v-14.014zm401.7 3.4944c35.714 0 64.926 31.385 66.982 71.016h-4.8814c-2.0511-36.603-29.073-65.556-62.1-65.556-0.5369 0-1.0827-0.0151-1.6164 0-32.289 0.92064-58.396 29.552-60.419 65.556h-4.9137c2.0561-39.631 31.235-71.016 66.95-71.016zm0 12.485c29.587 0 53.784 25.805 55.829 58.531h-31.034c-1.926-13.469-12.289-23.769-24.795-23.769s-22.869 10.3-24.795 23.769h-31.034c2.0441-32.726 26.241-58.531 55.829-58.531zm-401.7 5.6056h69.956v13.978h-69.956v-13.978zm0.4203 21.549h69.115c-1.7123 10.591-8.3642 18.455-16.358 18.455h-36.4c-7.9933 0-14.645-7.8642-16.358-18.455zm334.26 38.948h4.9137c1.4371 37.256 28.658 66.976 62.1 66.976s60.723-29.719 62.165-66.976h4.849c-1.4402 40.284-30.885 72.472-67.014 72.472s-65.574-32.188-67.014-72.472zm11.12 0h30.937c1.3481 14.191 11.995 25.225 24.956 25.225s23.608-11.034 24.956-25.225h30.969c-1.4348 33.385-25.921 59.987-55.926 59.987-30.004 0-54.46-26.601-55.894-59.987z" fill="#0ff" transform="matrix(-1 0 0 1 11370 361.02)" clip-path="url(#clipPath7188)"/>
            </g>
          </g>
        </g>
      </g>
    </g>
  </g>
  <metadata>
    <rdf:RDF>
      <cc:Work>
        <dc:format>image/svg+xml</dc:format>
        <dc:type rdf:resource="http://purl.org/dc/dcmitype/StillImage"/>
        <cc:license rdf:resource="http://creativecommons.org/licenses/publicdomain/"/>
        <dc:publisher>
          <cc:Agent rdf:about="http://openclipart.org/">
            <dc:title>Openclipart</dc:title>
          </cc:Agent>
        </dc:publisher>
        <dc:title>Background Tech</dc:title>
        <dc:date>2011-02-26T15:54:15</dc:date>
        <dc:description>Background Tech, Space, Technology, clip art, clipart, </dc:description>
        <dc:source>http://openclipart.org/detail/122947/background-tech-by-viscious-speed</dc:source>
        <dc:creator>
          <cc:Agent>
            <dc:title>Viscious-Speed</dc:title>
          </cc:Agent>
        </dc:creator>
        <dc:subject>
          <rdf:Bag>
            <rdf:li>Background Tech</rdf:li>
            <rdf:li>Space</rdf:li>
            <rdf:li>Technology</rdf:li>
            <rdf:li>clip art</rdf:li>
            <rdf:li>clipart</rdf:li>
          </rdf:Bag>
        </dc:subject>
      </cc:Work>
      <cc:License rdf:about="http://creativecommons.org/licenses/publicdomain/">
        <cc:permits rdf:resource="http://creativecommons.org/ns#Reproduction"/>
        <cc:permits rdf:resource="http://creativecommons.org/ns#Distribution"/>
        <cc:permits rdf:resource="http://creativecommons.org/ns#DerivativeWorks"/>
      </cc:License>
    </rdf:RDF>
  </metadata>
</svg>
